# xmcd
#
# Track frame offsets: 
#        150
#        21126
#        36383
#        59397
#        80463
#        100545
#        119046
#        139577
#        165543
#        184280
#        199795
#        219316
#        238146
#        258785
#
# Disc length: 3606 seconds
#
# Revision: 1
# Processed by: cddbd v1.5.2PL0 Copyright (c) Steve Scherf et al.
# Submitted via: ExactAudioCopy v0.95b1
#
DISCID=c10e140e
DTITLE=Various Artist - The Origin Of Merengue cd1
DYEAR=2000
DGENRE=Merengue
TTITLE0=Vargas - El Hombre De Los Trucos
TTITLE1=Alex Cobos and E. Gomez - El Bigote
TTITLE2=Copyright Control - Brinca, Brinca
TTITLE3=Hector Acosta - La Nena Del Jean
TTITLE4=Elvis Crespo - Suavemente
TTITLE5=Rodolfo Barrera - Serpiente Mala
TTITLE6=(Trad.) - Quizas Si, Quizas No
TTITLE7=Orlando Santana - Estan Bailando
TTITLE8=Guerra and Diblo Dibala - El Costo De La Vida
TTITLE9=J.L. Guerra - Rosalia
TTITLE10=Julio Delgado - Woman Del Callao
TTITLE11=Lea Lignasi and J.L. Guerra - A Pedir Su Mano
TTITLE12=Yaidelize Monrozeau - Asi Es El Amor
TTITLE13=Winston Paulino and Vargas - El Perrito
EXTD=YEAR: 2000
EXTT0=
EXTT1=
EXTT2=
EXTT3=
EXTT4=
EXTT5=
EXTT6=
EXTT7=
EXTT8=
EXTT9=
EXTT10=
EXTT11=
EXTT12=
EXTT13=
PLAYORDER=
